<svg width="16" height="16" viewBox="0 0 16 16" fill="none" xmlns="http://www.w3.org/2000/svg">
<path d="M12.1766 3.0718C10.7047 1.59993 8.30785 1.59993 6.83754 3.0718L2.75941 7.1468C2.73285 7.17336 2.71879 7.2093 2.71879 7.2468C2.71879 7.2843 2.73285 7.32024 2.75941 7.3468L3.33597 7.92336C3.36233 7.9496 3.398 7.96433 3.43519 7.96433C3.47238 7.96433 3.50806 7.9496 3.53441 7.92336L7.61254 3.84836C8.11879 3.34211 8.79222 3.06399 9.50785 3.06399C10.2235 3.06399 10.8969 3.34211 11.4016 3.84836C11.9079 4.35461 12.186 5.02805 12.186 5.74211C12.186 6.45774 11.9079 7.12961 11.4016 7.63586L7.24535 11.7906L6.57191 12.464C5.94222 13.0937 4.91879 13.0937 4.2891 12.464C3.98441 12.1593 3.81722 11.7546 3.81722 11.3234C3.81722 10.8921 3.98441 10.4874 4.2891 10.1827L8.41254 6.06086C8.51723 5.95774 8.65472 5.89993 8.8016 5.89993H8.80316C8.95004 5.89993 9.08597 5.95774 9.1891 6.06086C9.29379 6.16555 9.35004 6.30305 9.35004 6.44993C9.35004 6.59524 9.29222 6.73274 9.1891 6.83586L5.81879 10.2031C5.79222 10.2296 5.77816 10.2656 5.77816 10.3031C5.77816 10.3406 5.79222 10.3765 5.81879 10.4031L6.39535 10.9796C6.4217 11.0059 6.45738 11.0206 6.49457 11.0206C6.53176 11.0206 6.56743 11.0059 6.59379 10.9796L9.96254 7.61086C10.2735 7.29993 10.4438 6.88743 10.4438 6.44836C10.4438 6.0093 10.2719 5.59524 9.96254 5.28586C9.32035 4.64368 8.2766 4.64524 7.63441 5.28586L7.23441 5.68743L3.51254 9.40774C3.25993 9.65886 3.05969 9.95764 2.92344 10.2867C2.78718 10.6159 2.71762 10.9687 2.71879 11.3249C2.71879 12.0484 3.0016 12.7281 3.51254 13.239C4.04222 13.7671 4.73597 14.0312 5.42972 14.0312C6.12348 14.0312 6.81722 13.7671 7.34535 13.239L12.1766 8.41086C12.8875 7.69836 13.2813 6.74993 13.2813 5.74211C13.2828 4.73274 12.8891 3.7843 12.1766 3.0718Z" fill="#8C8C8C"/>
</svg>
